<svg xmlns="http://www.w3.org/2000/svg" version="1.1" xmlns:xlink="http://www.w3.org/1999/xlink" xmlns:svgjs="http://svgjs.dev/svgjs" width="1000" height="184" viewBox="0 0 1000 184"><g transform="matrix(1,0,0,1,-0.6056348047761162,-0.5809301338254613)"><svg viewBox="0 0 396 73" data-background-color="#fbeaab" preserveAspectRatio="xMidYMid meet" height="184" width="1000" xmlns="http://www.w3.org/2000/svg" xmlns:xlink="http://www.w3.org/1999/xlink"><g id="tight-bounds" transform="matrix(1,0,0,1,0.24008861730862918,0.23047771613727264)"><svg viewBox="0 0 395.52 72.53899587108583" height="72.53899587108583" width="395.52"><g><svg viewBox="0 0 395.52 72.53899587108583" height="72.53899587108583" width="395.52"><g><svg viewBox="0 0 395.52 72.53899587108583" height="72.53899587108583" width="395.52"><g id="textblocktransform"><svg viewBox="0 0 395.52 72.53899587108583" height="72.53899587108583" width="395.52" id="textblock"><g><svg viewBox="0 0 395.52 72.53899587108583" height="72.53899587108583" width="395.52"><path d="M394.594 15.558C392.735 8.029 387.435 5.935 387.435 5.935 371.165-1.82 350.86-0.148 332.619 0.966 300.414 1.011 268.339 2.668 236.208 3.556 168.767 3.692 100.749 1.463 33.643 6.96 27.339 8.646-6.54 7.291 1.121 16.522 3.129 20.362 10.456 24.624 10.232 28.148 11.236 28.765 12.631 27.349 13.226 28.238 15.309 30.632 18.711 29.503 21.501 30.918 17.614 34.698 20.403 37.846 23.062 41.144 18.377 42.002 12.371 41.595 9.675 44.441 9.396 46.505 7.89 46.113 6.235 46.023 5.026 45.962 2.59 46.188 2.999 46.836 4.394 49.05-1.594 50.33 2.162 52.498-0.422 54.847 3.948 56.88 3.353 59.425 3.278 59.937 3.687 60.374 4.338 60.494 7.22 61.142 3.018 62.407 3.464 63.777 33.029 73.144 65.104 66.669 95.394 70.976 103.259 67.964 97.346 72.045 100.489 71.412 102.943 70.674 104.728 73.731 107.499 72 107.927 71.503 107.276 70.328 108.8 70.554 109.6 70.674 110.307 70.644 110.418 69.951 110.586 68.912 109.117 69.56 108.726 69.018 112.947 66.277 111.906 72.798 115.866 72.527 115.68 71.728 114.528 70.584 116.889 70.735 119.232 69.59 119.306 68.641 121.389 71.216 121.463 71.774 121.835 72.165 122.43 72.436 128.938 69.635 135.409 73.43 142.233 72.165 146.417 70.78 150.433 72.918 154.672 72.391 156.16 71.969 157.666 71.216 159.098 72.481 176.632 72.752 195.319 71.623 211.943 72.527 256.364 70.84 303.835 73.219 350.674 70.991 361.719 70.132 373.192 68.912 383.958 67.934 383.958 67.934 392.679 65.253 392.679 53.206S394.538 42.665 394.817 33.072C395.096 23.479 396.398 23.088 394.538 15.558Z" opacity="1" fill="#454545" data-fill-palette-color="tertiary"></path><g transform="matrix(1,0,0,1,55.76832,26.230666666666668)"><svg width="283.98335999999995" viewBox="1.25 -35.45000076293945 509.8599853515625 36.04999923706055" height="20.0776625377525" data-palette-color="#fbeaab"><path d="M8.15-34.3L20.45-35.2 23.6-33.05 25-35 27.65-32.9 22.95-27.25 21.05-29 18.65-32.1 11.15-30.9 7.2-26.9 10.25-21.25 23.2-17.85 26.25-14.1 25.35-4.35 15 0.45 5.85-2.05 4.3 0.45 1.25-0.25 4.3-6.95 6.85-6.2 14.75-3.65 22.55-6.75 21.05-14.5 5.7-17.65 2.85-28.1 8.15-34.3ZM59.3-1.95L59.65 0 49.95 0 48.8-1.2 52.7-2.3 51.15-9.35 49.95-11.65 37.55-10.1 36.75-7.4 36-2.3 39.1-1.2 39.1 0.4 29.05-0.35 29.05-1.95 32.1-2.7 41.4-35.3 46.85-34.5 56.6-2.7 59.3-1.95ZM38.7-13.15L48.8-15.1 44.55-30.65 43.8-30.25 38.7-14 38.7-13.15ZM95.34-2.35L98.9-1.25 98.65 0.2 88.05 0.15 88-1.35 92.15-2.45 92.75-30.3 92.15-30.4 81.55-0.85 78.7-0.85 68.8-29.65 67.6-29.55 69.1-2.6 72.25-1.6 72.55 0.25 62.2 0.05 62.1-1.25 65.05-2.35 64.65-32.95 61.35-34.1 61.2-35.25 69.45-34.85 70.85-32.6 79.95-5.4 80.4-5.55 89.45-33.4 90.7-35.1 98.65-35.1 98.65-33.5 96.34-32.95 95.34-2.35ZM130.79-1.95L131.14 0 121.44 0 120.29-1.2 124.19-2.3 122.64-9.35 121.44-11.65 109.04-10.1 108.24-7.4 107.49-2.3 110.59-1.2 110.59 0.4 100.54-0.35 100.54-1.95 103.59-2.7 112.89-35.3 118.34-34.5 128.09-2.7 130.79-1.95ZM110.19-13.15L120.29-15.1 116.04-30.65 115.29-30.25 110.19-14 110.19-13.15ZM161.34-2.9L164.99-1.75 165.24 0.05 154.74-0.15 154.59-1.4 157.09-2.4 140.24-27.55 140.49-2.45 143.04-1.6 143.24 0.25 132.79 0.05 132.69-1.2 136.79-2.8 136.44-32.5 133.19-33.4 133.24-34.85 144.09-34.95 144.29-33.5 141.44-32.65 158.29-6.9 158.79-32.7 155.24-33.6 155.29-35.05 166.09-35.1 166.34-33.75 162.99-32.7 161.34-2.9ZM176.34-34.95L195.64-34.95 194.89-29.45 192.14-30.2 192.14-32.15 183.84-32.15 184.99-2.25 187.44-1.5 187.44 0.45 177.19 0.1 177.19-1.15 180.69-2.25 180.29-32.15 177.54-32.15 172.49-31.4 172.49-29.45 169.29-29.05 168.89-34.95 176.34-34.95ZM227.14-31.9L226.99-2.9 230.29-1.8 229.99-0.3 218.69-0.35 218.59-1.95 222.39-2.9 222.49-16.35 206.24-16.35 205.49-2.9 209.44-1.65 209.79 0.35 198.69 0.15 198.54-1.25 202.34-2.65 201.49-32.4 198.09-33.65 198.29-35.1 209.44-35.1 209.79-33.25 206.34-32.3 206.24-20.85 222.79-18.9 223.29-31.95 220.04-33.05 219.59-34.4 230.14-35.1 230.59-34 227.14-31.9ZM262.48-1.95L262.83 0 253.13 0 251.98-1.2 255.88-2.3 254.33-9.35 253.13-11.65 240.73-10.1 239.93-7.4 239.18-2.3 242.28-1.2 242.28 0.4 232.23-0.35 232.23-1.95 235.28-2.7 244.58-35.3 250.03-34.5 259.78-2.7 262.48-1.95ZM241.88-13.15L251.98-15.1 247.73-30.65 246.98-30.25 241.88-14 241.88-13.15ZM305.13-35L303.48-27.75 301.53-27.75 300.68-31 288.48-31.4 288.88-20.05 301.03-19.65 301.03-17.65 288.48-16 289.68-2.55 289.68-2.55 293.78-2.2 294.58 0.25 282.38 0.25 282.03-1.35 284.78-1.75 284.03-31.8 280.73-33.05 280.38-34.65 288.48-34.65 288.48-34.65 305.13-35ZM327.28-19.15L331.73-23.9 329.93-30.35 322.58-31.65 317.43-30.85 318.28-19.75 327.28-19.15ZM338.73-9.45L341.88-6.15 335.68-0.6 331.78-1.25 329.13-13 324.43-16.45 317.93-15.5 318.08-3.1 321.23-2.05 321.63-0.15 310.88-0.3 310.78-1.65 313.73-2.8 313.13-29.25 311.33-31.2 307.73-31.6 307.88-34.3 311.98-34.4 314.08-33.55 315.33-34.65 328.93-34.45 335.23-28.65 334.33-20.3 329.98-17 333.68-13.45 334.03-4.45 335.13-4.05 338.73-9.45ZM370.62-7.3L370.67 0.6 344.67 0.25 344.42-1.45 349.42-2.35 347.72-32.15 343.27-33.7 342.87-35.45 369.77-34.8 369.82-28.35 367.27-28.45 366.52-31.6 352.97-31.65 352.02-30.4 352.27-19.65 367.67-18.6 367.22-16.4 352.42-16.1 352.27-11.95 354.82-3.45 367.47-2.95 368.07-7 370.62-7.3ZM401.92-7.3L401.97 0.6 375.97 0.25 375.72-1.45 380.72-2.35 379.02-32.15 374.57-33.7 374.17-35.45 401.07-34.8 401.12-28.35 398.57-28.45 397.82-31.6 384.27-31.65 383.32-30.4 383.57-19.65 398.97-18.6 398.52-16.4 383.72-16.1 383.57-11.95 386.12-3.45 398.77-2.95 399.37-7 401.92-7.3ZM440.12-2.35L443.67-1.25 443.42 0.2 432.82 0.15 432.77-1.35 436.92-2.45 437.52-30.3 436.92-30.4 426.32-0.85 423.47-0.85 413.57-29.65 412.37-29.55 413.87-2.6 417.02-1.6 417.32 0.25 406.97 0.05 406.87-1.25 409.82-2.35 409.42-32.95 406.12-34.1 405.97-35.25 414.22-34.85 415.62-32.6 424.72-5.4 425.17-5.55 434.22-33.4 435.47-35.1 443.42-35.1 443.42-33.5 441.12-32.95 440.12-2.35ZM475.57-1.95L475.92 0 466.22 0 465.07-1.2 468.97-2.3 467.42-9.35 466.22-11.65 453.82-10.1 453.02-7.4 452.27-2.3 455.37-1.2 455.37 0.4 445.32-0.35 445.32-1.95 448.37-2.7 457.67-35.3 463.12-34.5 472.87-2.7 475.57-1.95ZM454.97-13.15L465.07-15.1 460.82-30.65 460.07-30.25 454.97-14 454.97-13.15ZM506.11-2.9L509.76-1.75 510.01 0.05 499.51-0.15 499.36-1.4 501.86-2.4 485.01-27.55 485.26-2.45 487.81-1.6 488.01 0.25 477.56 0.05 477.46-1.2 481.56-2.8 481.21-32.5 477.96-33.4 478.01-34.85 488.86-34.95 489.06-33.5 486.21-32.65 503.06-6.9 503.56-32.7 500.01-33.6 500.06-35.05 510.86-35.1 511.11-33.75 507.76-32.7 506.11-2.9Z" opacity="1" transform="matrix(1,0,0,1,0,0)" fill="#fbeaab" class="wordmark-text-0" data-fill-palette-color="quaternary" id="text-0"></path></svg></g></svg></g></svg></g></svg></g><g></g></svg></g><defs></defs></svg><rect width="395.52" height="72.53899587108583" fill="none" stroke="none" visibility="hidden"></rect></g></svg></g></svg>